<svg width="76" height="68" viewBox="0 0 76 68" fill="none" xmlns="http://www.w3.org/2000/svg">
<path d="M38 26C40.0683 26 42.0293 26.7176 43.7366 28.0461C45.4439 29.3648 46.8976 31.2945 47.9415 33.7091C48.0195 33.8933 48.0195 34.1067 47.9415 34.2812C45.8537 39.1103 42.1366 42 38 42H37.9902C33.8634 42 30.1463 39.1103 28.0585 34.2812C27.9805 34.1067 27.9805 33.8933 28.0585 33.7091C30.1463 28.88 33.8634 26 37.9902 26H38ZM38 30.1212C35.8439 30.1212 34.0976 31.857 34.0976 34C34.0976 36.1333 35.8439 37.8691 38 37.8691C40.1463 37.8691 41.8927 36.1333 41.8927 34C41.8927 31.857 40.1463 30.1212 38 30.1212ZM38.0012 31.5736C39.3378 31.5736 40.4304 32.6597 40.4304 33.9979C40.4304 35.3264 39.3378 36.4124 38.0012 36.4124C36.6548 36.4124 35.5621 35.3264 35.5621 33.9979C35.5621 33.833 35.5817 33.6779 35.6109 33.5227H35.6597C36.7426 33.5227 37.6207 32.6694 37.6597 31.6027C37.767 31.5833 37.8841 31.5736 38.0012 31.5736Z" fill="#F2F2F3"/>
<rect x="25" y="21" width="26" height="26" stroke="#4C4CFF" stroke-width="2" stroke-dasharray="2 2"/>
<rect x="1" y="1" width="74" height="66" stroke="#4C4CFF" stroke-width="2" stroke-dasharray="2 2"/>
</svg>
